<?xml version="1.0" standalone="no"?>
<!DOCTYPE svg PUBLIC "-//W3C//DTD SVG 20010904//EN"
 "http://www.w3.org/TR/2001/REC-SVG-20010904/DTD/svg10.dtd">
<svg version="1.0" xmlns="http://www.w3.org/2000/svg"
 width="225.000000pt" height="225.000000pt" viewBox="0 0 225.000000 225.000000"
 preserveAspectRatio="xMidYMid meet">
<metadata>
Created by potrace 1.10, written by Peter Selinger 2001-2011
</metadata>
<g transform="translate(0.000000,225.000000) scale(0.100000,-0.100000)"
fill="#000000" stroke="none">
<path d="M1060 2173 c-407 -33 -753 -280 -902 -645 -57 -141 -73 -226 -72
-403 1 -140 4 -172 27 -259 153 -570 740 -904 1304 -740 350 101 625 383 720
740 23 87 26 119 27 259 1 184 -16 269 -82 422 -158 367 -513 609 -917 626
-38 1 -86 1 -105 0z m214 -33 c156 -23 342 -100 466 -192 152 -114 305 -325
346 -475 8 -32 22 -80 30 -108 9 -30 17 -116 20 -210 6 -156 5 -163 -25 -278
-77 -295 -238 -503 -502 -648 -77 -42 -195 -86 -257 -95 -20 -3 -52 -9 -70
-14 -19 -5 -90 -9 -158 -8 -283 1 -527 101 -724 298 -143 142 -246 339 -276
525 -2 17 -9 58 -14 92 -16 97 1 264 42 408 29 104 30 105 39 105 5 0 9 7 9
15 0 43 117 214 206 302 158 153 358 253 564 280 25 3 47 7 49 9 9 8 188 3
255 -6z"/>
<path d="M357 1602 c-24 -26 -21 -57 6 -70 12 -6 53 -13 90 -15 43 -3 75 -11
86 -21 9 -9 28 -51 40 -93 13 -43 32 -102 42 -131 10 -29 19 -61 19 -70 0 -17
50 -199 86 -312 10 -30 19 -59 21 -65 1 -5 5 -23 9 -40 3 -16 14 -49 25 -72
10 -24 19 -47 19 -52 0 -17 51 -71 95 -101 29 -20 56 -30 79 -30 41 0 46 -12
15 -34 -16 -11 -23 -29 -27 -65 -5 -59 11 -91 61 -121 52 -32 81 -26 133 26
43 43 46 49 41 86 -3 23 -15 54 -26 69 -12 16 -21 30 -21 31 0 2 77 4 170 5
94 1 170 0 170 -3 0 -4 -11 -19 -25 -36 -30 -36 -34 -102 -7 -134 24 -29 77
-64 97 -64 25 0 75 29 101 58 32 37 32 95 -1 138 -32 41 -31 46 3 43 43 -3 62
10 62 42 0 55 -11 57 -385 55 -202 0 -354 3 -374 9 -54 16 -76 54 -113 200 -5
22 -13 47 -18 55 -4 8 -15 49 -25 90 -10 41 -21 83 -26 92 -5 9 -12 35 -15 58
-4 22 -11 43 -15 46 -5 3 -9 20 -9 38 0 17 -4 36 -9 42 -5 5 -12 23 -15 39
l-6 30 524 0 c288 0 527 -2 530 -5 2 -3 -4 -50 -16 -105 -11 -55 -23 -118 -25
-140 -3 -22 -9 -44 -14 -49 -5 -6 -9 -24 -9 -40 0 -17 -7 -49 -14 -71 l-14
-40 -329 0 c-284 0 -328 2 -329 15 0 8 -3 22 -7 30 -3 8 -8 27 -11 41 -5 23
-3 26 21 25 20 -1 29 -8 36 -31 14 -45 37 -66 61 -59 29 10 46 35 43 64 -2 21
3 26 26 28 24 3 27 0 27 -25 0 -24 30 -73 45 -73 20 0 55 27 57 44 0 12 1 28
2 36 1 9 13 16 34 18 30 3 32 1 32 -27 0 -32 30 -71 53 -71 27 1 47 28 47 64
0 33 2 36 29 36 27 0 30 -3 33 -37 2 -28 10 -41 29 -52 24 -13 28 -12 47 7 14
14 22 35 22 55 0 18 4 37 9 43 5 5 12 36 15 69 3 33 9 81 12 106 4 33 2 48 -9
58 -12 9 -110 12 -412 12 -364 1 -398 -1 -416 -17 -12 -11 -17 -24 -13 -37 3
-10 7 -29 9 -40 1 -12 12 -51 24 -86 11 -35 21 -70 21 -78 0 -7 4 -21 9 -31 5
-9 15 -44 21 -77 7 -35 21 -71 35 -87 l24 -28 384 0 c353 0 385 1 399 18 14
16 25 55 48 172 24 121 30 149 40 195 34 148 36 186 14 220 -37 57 -26 56
-622 54 l-547 -1 -22 43 c-12 24 -20 46 -18 48 9 9 -72 78 -104 89 -19 7 -64
12 -101 12 -52 0 -71 -4 -83 -18z m201 -26 c42 -22 68 -58 87 -122 l16 -54
569 0 c557 0 570 0 590 -20 12 -12 20 -33 20 -52 0 -18 -22 -143 -48 -278
l-49 -245 -391 -3 -391 -2 -11 42 c-7 24 -32 114 -56 200 -24 87 -44 165 -44
173 0 13 51 15 405 15 223 0 405 -2 405 -5 0 -3 -9 -59 -20 -123 -11 -64 -23
-132 -26 -149 -4 -27 -10 -33 -29 -33 -27 0 -29 6 -16 63 l9 37 -59 0 -59 0 0
-50 c0 -47 -2 -50 -25 -50 -23 0 -25 3 -25 50 l0 50 -60 0 -60 0 0 -50 c0 -47
-2 -50 -25 -50 -23 0 -25 3 -25 50 l0 50 -60 0 -61 0 7 -50 c6 -48 6 -50 -18
-50 -23 0 -26 5 -32 50 l-7 50 -59 0 c-43 0 -58 -3 -55 -12 2 -7 13 -46 25
-85 l21 -73 349 0 350 0 5 23 c16 69 85 435 85 455 l0 22 -558 0 -558 0 96
-335 c71 -246 102 -341 119 -359 52 -55 59 -56 450 -56 l361 0 0 -25 0 -26
-379 3 -379 3 -44 30 c-23 17 -52 45 -64 62 -12 19 -69 202 -134 430 -61 219
-119 409 -127 421 -22 35 -77 54 -145 50 l-58 -3 0 29 0 29 78 -6 c44 -2 93
-12 110 -21z m557 -1070 c41 -17 55 -42 55 -94 0 -33 -6 -45 -31 -66 -89 -76
-210 37 -138 128 19 25 49 44 72 45 4 1 23 -5 42 -13z m480 0 c69 -29 82 -112
23 -161 -86 -73 -207 40 -137 129 19 25 49 44 72 45 4 1 23 -5 42 -13z"/>
<path d="M910 1168 c5 -13 14 -41 19 -63 l10 -40 61 0 61 0 -6 35 c-16 98 -9
90 -86 90 -67 0 -68 0 -59 -22z m105 -10 c6 -4 11 -19 10 -35 0 -25 -3 -28
-34 -28 -30 0 -36 4 -42 29 -5 16 -7 32 -5 35 5 8 59 7 71 -1z"/>
<path d="M1093 1173 c3 -10 8 -38 11 -63 l6 -45 65 0 65 0 0 63 0 62 -76 0
c-67 0 -75 -2 -71 -17z m119 -37 c6 -31 -8 -46 -42 -46 -32 0 -50 17 -50 46 0
19 6 23 38 26 47 4 49 3 54 -26z"/>
<path d="M1288 1128 l4 -63 59 0 59 0 0 63 0 62 -62 0 -63 0 3 -62z m93 30 c7
-56 3 -63 -31 -63 -32 0 -35 3 -36 30 0 17 0 33 2 36 5 9 64 7 65 -3z"/>
<path d="M1460 1128 l0 -63 61 2 c33 1 62 3 64 5 1 1 6 29 9 61 l7 57 -70 0
-71 0 0 -62z m105 33 c15 -1 16 -4 7 -13 -7 -7 -12 -22 -12 -35 0 -21 -4 -23
-37 -20 -35 2 -38 5 -39 32 -1 40 0 41 33 39 15 -1 37 -3 48 -3z"/>
<path d="M1046 454 c-19 -18 -21 -55 -4 -72 19 -19 55 -14 72 10 20 29 20 34
-4 58 -24 24 -43 25 -64 4z m50 -25 c3 -6 0 -17 -8 -25 -13 -13 -16 -13 -28 1
-12 14 -11 18 1 26 19 12 26 11 35 -2z"/>
<path d="M1526 451 c-25 -28 -17 -64 18 -76 24 -8 31 -6 47 14 24 29 24 36 -1
61 -25 25 -42 25 -64 1z m49 -21 c4 -6 1 -17 -5 -26 -10 -11 -16 -12 -26 -3
-11 9 -11 15 -3 25 14 17 25 18 34 4z"/>
</g>
</svg>
